<?xml version="1.0" standalone="no"?>
<!DOCTYPE svg PUBLIC "-//W3C//DTD SVG 20010904//EN"
 "http://www.w3.org/TR/2001/REC-SVG-20010904/DTD/svg10.dtd">
<svg version="1.0" xmlns="http://www.w3.org/2000/svg"
 width="512.000000pt" height="512.000000pt" viewBox="0 0 512.000000 512.000000"
 preserveAspectRatio="xMidYMid meet">

<g transform="translate(0.000000,512.000000) scale(0.100000,-0.100000)"
fill="#000000" stroke="none">
<path d="M2927 4816 c-62 -34 -518 -418 -837 -705 -216 -195 -600 -563 -791
-760 l-199 -204 -137 -14 c-163 -16 -466 -21 -575 -10 -116 13 -112 29 -83
-341 35 -451 47 -718 41 -902 -6 -186 -7 -226 -7 -324 l0 -69 52 -49 c29 -27
71 -60 93 -73 94 -55 245 -67 479 -40 l128 15 162 -108 c754 -504 1392 -868
1627 -928 233 -59 417 75 413 301 -1 39 -6 385 -11 770 -13 919 -35 1546 -77
2210 -34 533 -82 1107 -96 1151 -23 74 -117 115 -182 80z m99 -263 c84 -933
127 -1801 143 -2877 12 -753 5 -1179 -19 -1184 -9 -1 -58 21 -110 49 -52 28
-311 166 -575 306 -546 291 -843 452 -1096 595 l-176 100 -7 61 c-3 33 -6 344
-7 691 0 347 -3 662 -8 700 l-7 69 255 260 c449 456 966 926 1455 1321 96 78
110 86 124 73 10 -11 19 -60 28 -164z m-1956 -1756 c0 -134 3 -460 7 -724 l6
-480 -274 -7 c-151 -3 -293 -9 -316 -12 l-41 -6 5 179 c6 196 -7 518 -37 923
-11 146 -21 282 -22 303 l-3 39 190 -1 c152 0 324 10 473 28 9 1 12 -54 12
-242z"/>
<path d="M2567 3856 c-257 -105 -507 -282 -688 -488 -71 -80 -81 -105 -53
-132 31 -31 53 -17 187 117 188 188 377 316 606 410 53 21 102 44 109 49 28
24 0 88 -39 88 -8 0 -63 -20 -122 -44z"/>
<path d="M4479 3124 c-152 -152 -282 -275 -287 -273 -6 2 -129 119 -274 260
-145 141 -274 261 -286 268 -19 10 -28 10 -48 -4 -50 -32 -39 -46 253 -332
l278 -272 -248 -248 c-137 -136 -253 -256 -258 -265 -13 -24 5 -56 37 -64 29
-8 24 -12 349 308 l200 197 263 -255 c145 -139 270 -254 278 -254 32 0 54 21
54 49 0 25 -39 67 -259 281 l-259 251 275 272 c151 150 279 280 285 290 14 27
-15 67 -49 67 -21 0 -82 -56 -304 -276z"/>
</g>
</svg>
