<?xml version="1.0" standalone="no"?>
<!DOCTYPE svg PUBLIC "-//W3C//DTD SVG 20010904//EN"
 "http://www.w3.org/TR/2001/REC-SVG-20010904/DTD/svg10.dtd">
<svg version="1.0" xmlns="http://www.w3.org/2000/svg"
 width="512.000000pt" height="512.000000pt" viewBox="0 0 512.000000 512.000000"
 preserveAspectRatio="xMidYMid meet">

<g transform="translate(0.000000,512.000000) scale(0.100000,-0.100000)"
fill="#000000" stroke="none">
<path d="M3557 4573 c-14 -17 -147 -552 -147 -594 0 -10 11 -26 25 -35 23 -15
27 -15 50 0 14 9 27 26 30 39 3 12 32 136 65 275 33 139 60 266 60 282 0 46
-52 66 -83 33z"/>
<path d="M4332 4333 c-35 -31 -512 -615 -512 -627 0 -23 32 -56 54 -56 28 0
42 15 282 308 266 325 264 322 264 342 0 21 -31 50 -52 50 -9 0 -25 -8 -36
-17z"/>
<path d="M1965 4169 c-105 -11 -431 -75 -509 -101 -160 -52 -335 -141 -488
-248 -128 -90 -299 -262 -377 -380 -310 -470 -386 -1095 -200 -1655 216 -654
770 -1100 1463 -1181 72 -8 185 -21 251 -29 267 -33 384 -38 795 -39 424 -1
613 8 825 39 107 16 191 40 201 57 11 18 -31 44 -98 61 -118 29 -544 66 -783
67 l-60 0 89 46 c614 312 964 963 907 1686 -22 285 -60 441 -151 635 -169 359
-487 674 -865 859 -311 152 -670 217 -1000 183z m519 -128 c145 -32 277 -76
401 -135 204 -97 339 -192 509 -356 242 -234 393 -501 453 -798 22 -107 24
-381 5 -492 -50 -286 -154 -552 -295 -760 -75 -109 -273 -303 -387 -379 -189
-126 -404 -215 -630 -262 -101 -21 -141 -24 -330 -24 -185 1 -230 4 -320 23
-516 112 -936 437 -1170 907 -126 252 -172 445 -172 720 0 436 162 836 457
1130 215 215 464 350 776 419 156 34 157 34 394 31 170 -2 229 -7 309 -24z"/>
<path d="M2446 3236 c-40 -7 -74 -19 -81 -29 -35 -48 -34 -1077 1 -1450 10
-102 6 -100 208 -93 262 10 294 14 310 39 10 17 17 184 31 753 10 402 14 740
11 751 -4 12 -14 25 -24 29 -31 14 -382 14 -456 0z m376 -96 c7 -8 -29 -1350
-35 -1357 -4 -3 -75 -8 -160 -11 l-154 -5 -7 64 c-15 141 -25 438 -25 684 1
319 11 601 22 611 5 5 32 12 60 15 58 8 293 7 299 -1z"/>
<path d="M1478 3226 c-37 -6 -75 -18 -84 -27 -13 -13 -17 -54 -24 -210 -24
-535 0 -1284 43 -1327 14 -13 44 -14 242 -5 202 9 228 12 245 29 17 18 19 65
36 767 13 550 15 750 7 758 -6 6 -31 15 -55 20 -61 12 -330 9 -410 -5z m366
-97 c7 -8 -29 -1348 -37 -1355 -4 -5 -77 -10 -161 -12 l-153 -4 -7 88 c-19
242 -26 647 -16 948 5 175 12 321 14 324 17 16 345 27 360 11z"/>
<path d="M4407 3379 c-160 -11 -264 -22 -273 -30 -8 -6 -14 -24 -14 -39 0 -55
6 -55 308 -36 334 21 369 25 388 43 18 19 18 48 -2 67 -19 20 -63 19 -407 -5z"/>
</g>
</svg>
