<?xml version="1.0" standalone="no"?>
<!DOCTYPE svg PUBLIC "-//W3C//DTD SVG 20010904//EN"
 "http://www.w3.org/TR/2001/REC-SVG-20010904/DTD/svg10.dtd">
<svg version="1.0" xmlns="http://www.w3.org/2000/svg"
 width="512.000000pt" height="512.000000pt" viewBox="0 0 512.000000 512.000000"
 preserveAspectRatio="xMidYMid meet">

<g transform="translate(0.000000,512.000000) scale(0.100000,-0.100000)"
fill="#000000" stroke="none">
<path d="M417 4037 l-75 -104 -11 -154 c-51 -701 -53 -1595 -5 -2349 22 -349
23 -354 55 -358 15 -2 35 -12 45 -23 28 -31 59 -23 152 40 176 118 513 326
1142 706 445 269 853 527 898 568 12 11 22 30 22 42 0 15 -63 84 -208 226
-370 364 -741 674 -1282 1070 -351 258 -614 439 -637 439 -16 0 -40 -26 -96
-103z m408 -231 c676 -483 1131 -853 1505 -1223 141 -140 172 -175 160 -183
-135 -89 -529 -335 -798 -498 -455 -275 -921 -562 -1060 -652 -62 -40 -114
-71 -116 -69 -3 2 -9 227 -16 499 -15 677 6 1580 50 2139 6 68 10 135 10 149
0 24 0 24 28 6 15 -10 121 -85 237 -168z"/>
<path d="M2826 4082 c-10 -5 -26 -22 -35 -39 -9 -17 -29 -48 -46 -69 l-30 -38
2 -520 c1 -287 9 -732 17 -991 9 -258 21 -664 28 -901 l12 -431 47 -18 c27 -9
53 -23 60 -31 18 -22 721 -21 739 1 15 19 25 208 40 745 17 668 10 1371 -21
1995 -13 277 -6 263 -141 282 -107 15 -643 27 -672 15z m594 -113 c52 -6 98
-13 101 -17 28 -31 50 -1689 30 -2314 -6 -200 -14 -396 -18 -435 l-6 -73 -277
0 -277 0 -6 563 c-6 541 -20 1050 -52 1886 -12 316 -12 397 -2 404 15 11 377
1 507 -14z"/>
<path d="M4045 4042 c-69 -8 -123 -37 -163 -90 l-27 -36 1 -555 c1 -481 25
-1492 52 -2145 l7 -169 51 -18 c29 -9 63 -24 76 -33 22 -14 67 -16 379 -14
l354 3 11 25 c31 68 54 1489 35 2160 -12 418 -27 758 -36 797 -3 12 -14 27
-25 33 -51 27 -570 58 -715 42z m460 -112 c61 -5 126 -13 146 -16 l36 -5 7
-142 c21 -457 27 -708 27 -1292 0 -591 -12 -1171 -27 -1333 l-6 -62 -136 0
c-75 0 -200 3 -278 7 l-141 6 -6 591 c-4 325 -11 724 -17 886 -5 162 -17 495
-25 740 -8 245 -17 487 -20 538 l-6 92 168 0 c92 0 218 -5 278 -10z"/>
</g>
</svg>
