<?xml version="1.0" standalone="no"?>
<!DOCTYPE svg PUBLIC "-//W3C//DTD SVG 20010904//EN"
 "http://www.w3.org/TR/2001/REC-SVG-20010904/DTD/svg10.dtd">
<svg version="1.0" xmlns="http://www.w3.org/2000/svg"
 width="512.000000pt" height="512.000000pt" viewBox="0 0 512.000000 512.000000"
 preserveAspectRatio="xMidYMid meet">

<g transform="translate(0.000000,512.000000) scale(0.100000,-0.100000)"
fill="#000000" stroke="none">
<path d="M3792 4822 c-16 -11 -212 -468 -212 -497 0 -11 5 -26 12 -33 16 -16
63 -15 76 1 20 24 202 467 202 491 0 36 -46 58 -78 38z"/>
<path d="M4230 4388 c-96 -68 -204 -125 -335 -178 -84 -34 -90 -38 -93 -67 -5
-47 27 -66 82 -49 177 54 488 236 503 293 7 29 -21 63 -51 62 -12 0 -59 -27
-106 -61z"/>
<path d="M3279 4229 c-160 -118 -426 -303 -819 -568 -423 -286 -646 -447 -867
-623 l-184 -148 -201 0 c-353 0 -452 -42 -504 -215 -18 -63 -34 -314 -37 -595
-2 -203 -1 -218 21 -271 31 -77 90 -141 163 -178 90 -45 153 -54 319 -48 l144
5 56 -42 c64 -49 298 -214 481 -339 293 -199 809 -520 1234 -769 225 -132 257
-148 292 -148 33 0 113 35 113 49 0 5 16 119 34 253 75 525 106 937 113 1508
9 696 -20 1173 -112 1815 -37 259 -58 372 -71 385 -31 28 -52 20 -175 -71z
m140 -314 c133 -920 153 -1857 61 -2815 -23 -238 -68 -587 -78 -613 -6 -15
-34 0 -197 105 -206 133 -930 616 -1440 962 -227 154 -319 222 -318 234 38
273 46 608 18 837 -8 72 -17 137 -20 145 -3 8 4 21 15 28 11 6 72 55 135 107
188 154 439 338 785 574 626 426 736 502 865 595 120 86 131 92 137 72 4 -12
21 -115 37 -231z m-2073 -1143 c-2 -4 2 -57 11 -117 21 -146 23 -555 4 -724
l-14 -123 -36 6 c-20 3 -101 8 -181 11 -168 8 -196 14 -236 56 -26 28 -29 37
-32 112 -2 45 1 220 5 388 10 337 10 339 76 379 29 18 51 20 220 20 104 0 186
-4 183 -8z"/>
<path d="M2726 3264 c-82 -52 -203 -133 -270 -180 -272 -190 -291 -209 -246
-254 28 -28 44 -22 159 64 95 70 402 276 520 349 48 29 61 42 61 61 0 31 -25
56 -53 55 -12 0 -89 -43 -171 -95z"/>
<path d="M3963 3849 c-12 -4 -24 -17 -28 -29 -14 -45 11 -60 244 -135 123 -40
232 -70 243 -67 11 2 24 15 30 28 25 54 -11 71 -427 199 -24 7 -49 9 -62 4z"/>
<path d="M3926 3014 c-27 -27 -18 -51 49 -137 83 -103 167 -271 202 -402 25
-92 27 -114 27 -290 0 -162 -4 -201 -22 -267 -44 -162 -122 -316 -211 -423
-112 -134 -107 -124 -90 -154 27 -48 59 -40 124 31 99 107 187 254 240 398
132 367 83 775 -134 1100 -95 143 -147 183 -185 144z"/>
</g>
</svg>
